<?xml version="1.0" encoding="UTF-8"?>
<svg version="1.1" xmlns="http://www.w3.org/2000/svg" width="318" height="255" viewBox="78 48 164 140" preserveAspectRatio="xMidYMid meet">
<path d="M0 0 C104.94 0 209.88 0 318 0 C318 84.15 318 168.3 318 255 C213.06 255 108.12 255 0 255 C0 170.85 0 86.7 0 0 Z " fill="#FEFEFE" transform="translate(0,0)"/>
<path d="M0 0 C4.40162981 2.1829221 6.50053357 7.86324899 8.921875 11.953125 C9.36402344 12.6028125 9.80617187 13.2525 10.26171875 13.921875 C13.37706597 18.62261244 13.28377408 22.55836914 12.921875 27.953125 C11.80167969 28.50742188 10.68148437 29.06171875 9.52734375 29.6328125 C8.05463462 30.36447691 6.58198128 31.09625361 5.109375 31.828125 C4.37138672 32.19292969 3.63339844 32.55773437 2.87304688 32.93359375 C2.16083984 33.28808594 1.44863281 33.64257812 0.71484375 34.0078125 C-0.26705933 34.49483643 -0.26705933 34.49483643 -1.26879883 34.99169922 C-3.32465298 36.04568172 -3.32465298 36.04568172 -6.078125 37.953125 C-7.068125 37.953125 -8.058125 37.953125 -9.078125 37.953125 C-9.078125 38.613125 -9.078125 39.273125 -9.078125 39.953125 C-10.398125 40.943125 -11.718125 41.933125 -13.078125 42.953125 C-7.468125 45.923125 -1.858125 48.893125 3.921875 51.953125 C3.921875 52.943125 3.921875 53.933125 3.921875 54.953125 C1.39387318 55.9054886 -0.41374865 56.18498675 -2.99072266 55.28564453 C-5.16129911 54.25575681 -7.2772489 53.15824568 -9.390625 52.015625 C-10.13119141 51.62955078 -10.87175781 51.24347656 -11.63476562 50.84570312 C-13.45582759 49.89405139 -15.26790454 48.92524104 -17.078125 47.953125 C-17.078125 47.293125 -17.078125 46.633125 -17.078125 45.953125 C-17.903125 45.911875 -18.728125 45.870625 -19.578125 45.828125 C-24.31837087 44.64306353 -27.36581195 42.03415639 -31.078125 38.953125 C-27.46370681 34.68064698 -22.98400138 32.61249277 -18.078125 30.140625 C-16.37260739 29.26383679 -14.6681797 28.38492527 -12.96484375 27.50390625 C-12.13388184 27.07416504 -11.30291992 26.64442383 -10.44677734 26.20166016 C-5.55750315 23.62448553 -0.81094614 20.80604313 3.921875 17.953125 C3.26454357 14.0921006 2.35440921 12.02023335 -0.078125 8.953125 C-0.078125 8.293125 -0.078125 7.633125 -0.078125 6.953125 C-2.09857942 7.55496249 -4.09923539 8.22618596 -6.078125 8.953125 C-6.408125 9.613125 -6.738125 10.273125 -7.078125 10.953125 C-8.72265625 11.62231445 -8.72265625 11.62231445 -10.890625 12.25390625 C-20.72291385 15.39564197 -31.96321376 19.1642034 -39.078125 26.953125 C-42.03753938 34.57887248 -41.16707257 42.99378433 -40.078125 50.953125 C-39.30573486 51.25855225 -38.53334473 51.56397949 -37.73754883 51.87866211 C-29.05641853 55.38602045 -20.94288585 60.12419074 -12.8269043 64.75585938 C-8.02348939 67.47633626 -3.18987662 69.85365558 1.921875 71.953125 C2.169375 71.251875 2.416875 70.550625 2.671875 69.828125 C3.80705194 67.21721803 5.15302822 65.04460596 6.74462891 62.69726562 C8.95722994 59.41920222 11.08743715 56.08690473 13.234375 52.765625 C13.68232422 52.07404297 14.13027344 51.38246094 14.59179688 50.66992188 C17.13585457 46.73688784 19.6602128 42.79222071 22.16796875 38.8359375 C26.19180632 32.5058413 30.29169495 26.22647285 34.40283203 19.95288086 C35.68541647 17.99495328 36.96578796 16.03559003 38.24609375 14.07617188 C39.07017926 12.81762108 39.89439325 11.5591544 40.71875 10.30078125 C41.28598785 9.43200096 41.28598785 9.43200096 41.86468506 8.54566956 C43.7938463 5.60642348 45.77364175 2.73675716 47.921875 -0.046875 C50.891875 0.448125 50.891875 0.448125 53.921875 0.953125 C53.921875 1.613125 53.921875 2.273125 53.921875 2.953125 C55.0975 3.2625 55.0975 3.2625 56.296875 3.578125 C60.41415474 5.1398518 63.85139579 7.25401908 67.5546875 9.61328125 C69.72985913 10.84444275 71.4822348 11.49780045 73.921875 11.953125 C73.921875 12.613125 73.921875 13.273125 73.921875 13.953125 C75.159375 14.324375 75.159375 14.324375 76.421875 14.703125 C80.44709727 16.14070438 84.19789432 17.85838587 87.921875 19.953125 C88.94361816 20.46278809 89.96536133 20.97245117 91.01806641 21.49755859 C93.921875 23.953125 93.921875 23.953125 94.60302734 27.80371094 C94.60208181 29.34863305 94.56842719 30.89376716 94.5078125 32.4375 C94.49932281 33.25309387 94.49083313 34.06868774 94.48208618 34.90899658 C94.44855619 37.50839598 94.37328609 40.10466721 94.296875 42.703125 C94.26677449 44.46740304 94.23939882 46.23172982 94.21484375 47.99609375 C94.14876724 52.31630541 94.0452552 56.63418533 93.921875 60.953125 C93.18582031 61.35144531 92.44976562 61.74976563 91.69140625 62.16015625 C90.71558594 62.68996094 89.73976562 63.21976563 88.734375 63.765625 C87.77144531 64.28769531 86.80851563 64.80976562 85.81640625 65.34765625 C83.14778686 66.82782166 80.53618707 68.37988122 77.921875 69.953125 C76.09720877 70.88692478 74.26323074 71.80268181 72.421875 72.703125 C66.70332304 75.52692609 61.11653896 78.5431313 55.5390625 81.6328125 C52.921875 82.953125 52.921875 82.953125 50.921875 82.953125 C50.921875 83.613125 50.921875 84.273125 50.921875 84.953125 C49.931875 84.953125 48.941875 84.953125 47.921875 84.953125 C46.69506836 83.51611328 46.69506836 83.51611328 45.51171875 81.5234375 C45.07923828 80.81058594 44.64675781 80.09773438 44.20117188 79.36328125 C43.75837891 78.60917969 43.31558594 77.85507813 42.859375 77.078125 C41.97492039 75.60020518 41.0882929 74.12358295 40.19921875 72.6484375 C39.80984131 71.98859863 39.42046387 71.32875977 39.01928711 70.64892578 C37.90381181 68.79541077 37.90381181 68.79541077 35.921875 66.953125 C35.7265625 64.5703125 35.7265625 64.5703125 35.796875 61.828125 C35.81492187 60.91804688 35.83296875 60.00796875 35.8515625 59.0703125 C35.87476563 58.37164062 35.89796875 57.67296875 35.921875 56.953125 C37.571875 56.623125 39.221875 56.293125 40.921875 55.953125 C40.921875 55.293125 40.921875 54.633125 40.921875 53.953125 C47.79760601 50.0290967 54.82040204 46.44978935 61.921875 42.953125 C58.04087821 39.85384557 53.80464971 37.77355464 49.3828125 35.55078125 C46.79088682 33.86808664 45.97051367 32.80912327 44.921875 29.953125 C49.55680056 26.27714956 52.98785498 25.46672992 58.921875 25.953125 C66.37045657 29.03529669 73.10772531 33.6735066 79.921875 37.953125 C77.67040061 41.33033659 76.10340949 42.12241556 72.546875 43.953125 C68.56371439 46.01352473 68.56371439 46.01352473 64.86328125 48.5234375 C62.71815331 50.10314942 60.7332743 50.91870271 58.234375 51.828125 C53.18302106 53.76460244 48.57631264 56.20992987 43.921875 58.953125 C45.37231771 63.06271267 47.43298252 66.38571245 49.921875 69.953125 C53.45122356 68.61462429 56.69403246 67.04929004 59.984375 65.203125 C74.92613636 56.95170455 74.92613636 56.95170455 80.921875 54.953125 C81.375625 54.458125 81.829375 53.963125 82.296875 53.453125 C83.921875 51.953125 83.921875 51.953125 88.921875 50.953125 C88.591875 43.033125 88.261875 35.113125 87.921875 26.953125 C84.621875 25.303125 81.321875 23.653125 77.921875 21.953125 C75.20700469 20.52595005 72.49793314 19.0931328 69.796875 17.640625 C69.1265625 17.28162109 68.45625 16.92261719 67.765625 16.55273438 C66.15038306 15.68742619 64.53602783 14.82046312 62.921875 13.953125 C62.921875 13.293125 62.921875 12.633125 62.921875 11.953125 C58.93801114 10.78140034 54.99917212 9.734783 50.921875 8.953125 C45.31977467 17.02703813 39.75913305 25.09883517 34.54296875 33.4296875 C32.34058799 36.85797176 29.98343259 40.16624337 27.59765625 43.46875 C25.9429561 45.92187191 24.49932963 48.45239733 23.04907227 51.02978516 C20.93921676 54.6298375 18.5702117 58.05975385 16.234375 61.515625 C11.02929773 69.26544239 5.93542309 77.07830956 0.921875 84.953125 C-5.52607174 83.08452478 -10.99898132 80.53109084 -16.703125 77.015625 C-18.13259643 76.15198601 -19.56228158 75.28870067 -20.9921875 74.42578125 C-21.67498779 74.01094482 -22.35778809 73.5961084 -23.0612793 73.16870117 C-28.61755104 69.7523456 -28.61755104 69.7523456 -34.515625 67.015625 C-38.39379011 65.40760532 -41.97097196 63.83786477 -45.078125 60.953125 C-46.16381089 57.99995977 -46.01901852 55.26630747 -45.859375 52.15234375 C-45.84805542 51.31596878 -45.83673584 50.47959381 -45.82507324 49.61787415 C-45.78042056 46.95642192 -45.68010168 44.30043657 -45.578125 41.640625 C-45.5379826 39.83276034 -45.50148312 38.02481087 -45.46875 36.21679688 C-45.38072429 31.79347882 -45.24277251 27.37422726 -45.078125 22.953125 C-38.578125 18.953125 -38.578125 18.953125 -34.078125 18.953125 C-34.078125 18.293125 -34.078125 17.633125 -34.078125 16.953125 C-25.83827803 12.24977009 -25.83827803 12.24977009 -22.515625 10.953125 C-20.24675717 10.02230743 -18.44585188 8.96301202 -16.390625 7.640625 C-13.26572669 5.65420956 -10.10224309 3.80921247 -6.828125 2.078125 C-6.01859375 1.64757813 -5.2090625 1.21703125 -4.375 0.7734375 C-2.078125 -0.046875 -2.078125 -0.046875 0 0 Z " fill="#FCDF62" transform="translate(133.078125,57.046875)"/>
<path d="M0 0 C0.99 0 1.98 0 3 0 C3 84.15 3 168.3 3 255 C-101.94 255 -206.88 255 -315 255 C-314.67 254.01 -314.34 253.02 -314 252 C-210.71 252 -107.42 252 -1 252 C0.80289485 248.39421029 1.24997838 247.4042165 1.24888897 243.68993282 C1.25348777 242.83038681 1.25808656 241.9708408 1.26282471 241.08524793 C1.25768115 240.14566333 1.25253759 239.20607872 1.24723816 238.23802185 C1.25085978 236.73536486 1.25085978 236.73536486 1.25455457 235.20235115 C1.26020328 231.83592553 1.25151952 228.46968867 1.24291992 225.10327148 C1.24399251 222.6937861 1.24593083 220.28430096 1.24867249 217.87481689 C1.25302297 212.00418884 1.24807292 206.13361194 1.23882218 200.26299363 C1.22844037 193.42908765 1.22850831 186.59519387 1.22899476 179.7612815 C1.22949543 167.57009048 1.22033233 155.37892569 1.20581055 143.18774414 C1.19171995 131.35245282 1.18463991 119.51718459 1.18530273 107.68188477 C1.18536267 106.58828455 1.18536267 106.58828455 1.18542381 105.47259139 C1.18548435 104.38089902 1.18548435 104.38089902 1.1855461 103.26715225 C1.18623562 89.80015771 1.18034815 76.33317301 1.17139288 62.86618165 C1.16837428 58.10009752 1.16731306 53.3340152 1.16686058 48.56793022 C1.16610796 42.15677876 1.15977214 35.74564684 1.14969444 29.33450317 C1.14676569 26.97659009 1.14554483 24.61867419 1.14612198 22.26075935 C1.14661028 19.05214487 1.14098051 15.84359941 1.13371277 12.63499451 C1.13526137 11.69317918 1.13680997 10.75136385 1.1384055 9.78100866 C1.13518106 8.92407039 1.13195661 8.06713213 1.12863445 7.18422604 C1.12757782 6.07280944 1.12757782 6.07280944 1.12649983 4.93893999 C1.06809589 2.78129694 1.06809589 2.78129694 0 0 Z " fill="#ECEEFE" transform="translate(315,0)"/>
<path d="M0 0 C3.8053125 -0.12375 3.8053125 -0.12375 7.6875 -0.25 C8.87218872 -0.30462402 8.87218872 -0.30462402 10.08081055 -0.36035156 C13.90260839 -0.42027101 15.63709783 -0.23202728 18.95703125 1.890625 C21.3979784 4.4109146 21.93955098 5.31994849 22.25 8.8125 C21.96929042 12.39154719 21.12271416 14.14250017 19 17 C16.47524538 18.26237731 14.68799534 18.09856404 11.875 18.0625 C10.96492187 18.05347656 10.05484375 18.04445312 9.1171875 18.03515625 C8.06917969 18.01775391 8.06917969 18.01775391 7 18 C7 20.31 7 22.62 7 25 C4.69 25 2.38 25 0 25 C0 16.75 0 8.5 0 0 Z " fill="#63DEE3" transform="translate(135,152)"/>
<path d="M0 0 C2.31 0 4.62 0 7 0 C7.08120751 2.89640118 7.14059421 5.79050912 7.1875 8.6875 C7.21263672 9.50412109 7.23777344 10.32074219 7.26367188 11.16210938 C7.32212368 15.97464115 7.10044334 19.07377272 4 23 C1.49990913 25.50009087 0.5787141 25.29712739 -2.875 25.3125 C-3.73867187 25.32925781 -4.60234375 25.34601563 -5.4921875 25.36328125 C-8.50723002 24.92652275 -9.84536897 24.13513211 -12 22 C-12.75 18.3125 -12.75 18.3125 -13 15 C-11.02 15 -9.04 15 -7 15 C-6.67 16.32 -6.34 17.64 -6 19 C-4.35 19 -2.7 19 -1 19 C-0.67 12.73 -0.34 6.46 0 0 Z " fill="#7BE5E7" transform="translate(173,152)"/>
<path d="M0 0 C3.8053125 -0.12375 3.8053125 -0.12375 7.6875 -0.25 C8.87218872 -0.30462402 8.87218872 -0.30462402 10.08081055 -0.36035156 C13.90260839 -0.42027101 15.63709783 -0.23202728 18.95703125 1.890625 C21.3979784 4.4109146 21.93955098 5.31994849 22.25 8.8125 C21.97212427 12.35541555 21.02619474 14.12955745 19 17 C18.01 16.67 17.02 16.34 16 16 C16.99 15.67 17.98 15.34 19 15 C20.19988045 9.71800407 20.19988045 9.71800407 18 5 C17.67 7.64 17.34 10.28 17 13 C13.37 13 9.74 13 6 13 C6 10.36 6 7.72 6 5 C7.65 4.67 9.3 4.34 11 4 C11 3.34 11 2.68 11 2 C9.906875 2.020625 8.81375 2.04125 7.6875 2.0625 C4 2 4 2 1 1 C1 8.92 1 16.84 1 25 C0.67 25 0.34 25 0 25 C0 16.75 0 8.5 0 0 Z " fill="#87E5E7" transform="translate(135,152)"/>
<path d="M0 0 C2.64 0.33 5.28 0.66 8 1 C7.1875 2.9375 7.1875 2.9375 6 5 C5.01 5.33 4.02 5.66 3 6 C3 6.66 3 7.32 3 8 C4.32 8.33 5.64 8.66 7 9 C4.75154923 11.24845077 3.01101083 11.92379464 0.0625 13.0625 C-0.81277344 13.40410156 -1.68804687 13.74570313 -2.58984375 14.09765625 C-7.82968522 16.05941213 -7.82968522 16.05941213 -10.6875 15.0625 C-11.450625 14.711875 -12.21375 14.36125 -13 14 C-13 14.66 -13 15.32 -13 16 C-14.32 15.67 -15.64 15.34 -17 15 C-10.12426899 11.0759717 -3.10147296 7.49666435 4 4 C2.68 2.68 1.36 1.36 0 0 Z " fill="#FBE47E" transform="translate(191,96)"/>
<path d="M0 0 C0.99 0.495 0.99 0.495 2 1 C2 8.59 2 16.18 2 24 C2.33 24 2.66 24 3 24 C3.33 17.07 3.66 10.14 4 3 C4.66 3.33 5.32 3.66 6 4 C5.67 11.92 5.34 19.84 5 28 C6.32 28.66 7.64 29.32 9 30 C7.02 29.67 5.04 29.34 3 29 C3.33 30.65 3.66 32.3 4 34 C3.01 34 2.02 34 1 34 C0.67 35.32 0.34 36.64 0 38 C0 25.46 0 12.92 0 0 Z " fill="#F6DE77" transform="translate(88,80)"/>
<path d="M0 0 C1.65 0 3.3 0 5 0 C5.08685287 3.29150125 5.14033895 6.5827096 5.1875 9.875 C5.22520508 11.28072266 5.22520508 11.28072266 5.26367188 12.71484375 C5.27333984 13.61074219 5.28300781 14.50664062 5.29296875 15.4296875 C5.3086792 16.25710449 5.32438965 17.08452148 5.34057617 17.93701172 C5.22818604 18.61779785 5.1157959 19.29858398 5 20 C4.01 20.66 3.02 21.32 2 22 C1.67 20.02 1.34 18.04 1 16 C0.67 16 0.34 16 0 16 C0 10.72 0 5.44 0 0 Z " fill="#62DEE3" transform="translate(174,153)"/>
<path d="M0 0 C1.65 0.33 3.3 0.66 5 1 C1.25 4.875 1.25 4.875 -1 6 C-1 7.98 -1 9.96 -1 12 C-1.78375 11.79375 -2.5675 11.5875 -3.375 11.375 C-4.24125 11.25125 -5.1075 11.1275 -6 11 C-6.66 11.66 -7.32 12.32 -8 13 C-8 10.36 -8 7.72 -8 5 C-7.34 5 -6.68 5 -6 5 C-6 4.34 -6 3.68 -6 3 C-4.02 2.67 -2.04 2.34 0 2 C0 1.34 0 0.68 0 0 Z " fill="#FCDE5A" transform="translate(178,110)"/>
<path d="M0 0 C0.99 0.33 1.98 0.66 3 1 C2.34 1 1.68 1 1 1 C1 8.59 1 16.18 1 24 C0.01 23.67 -0.98 23.34 -2 23 C-2.05789006 19.54173658 -2.09355821 16.08359707 -2.125 12.625 C-2.14175781 11.64015625 -2.15851563 10.6553125 -2.17578125 9.640625 C-2.18222656 8.69960937 -2.18867187 7.75859375 -2.1953125 6.7890625 C-2.20578613 5.91975098 -2.21625977 5.05043945 -2.22705078 4.15478516 C-2 2 -2 2 0 0 Z " fill="#FBDD57" transform="translate(91,82)"/>
<path d="M0 0 C2.64 0 5.28 0 8 0 C8 2.31 8 4.62 8 7 C5.36 7 2.72 7 0 7 C0 4.69 0 2.38 0 0 Z " fill="#EEFDFD" transform="translate(142,158)"/>
<path d="M0 0 C2.13093906 1.06546953 3.36587557 2.29159719 5 4 C2.60490662 6.89932357 0.68754757 7.50168276 -3 8 C-3 7.34 -3 6.68 -3 6 C-4.65 5.67 -6.3 5.34 -8 5 C-5.31158141 2.74754119 -3.35358125 1.11786042 0 0 Z " fill="#FBE47E" transform="translate(124,61)"/>
<path d="M0 0 C0.8971875 0.309375 0.8971875 0.309375 1.8125 0.625 C1.8125 2.605 1.8125 4.585 1.8125 6.625 C-1.1575 6.625 -4.1275 6.625 -7.1875 6.625 C-7.5175 5.965 -7.8475 5.305 -8.1875 4.625 C-3.2421875 -0.55580357 -3.2421875 -0.55580357 0 0 Z " fill="#FBDF62" transform="translate(133.1875,57.375)"/>
<path d="M0 0 C1.231394 2.46278801 1.07159196 4.2795055 1 7 C0.34 7 -0.32 7 -1 7 C-1 7.99 -1 8.98 -1 10 C-2.65 10.33 -4.3 10.66 -6 11 C-6.33 12.32 -6.66 13.64 -7 15 C-7.66 15 -8.32 15 -9 15 C-7.61219205 11.10993227 -5.7847773 8.03441292 -3.375 4.6875 C-2.74335938 3.80449219 -2.11171875 2.92148438 -1.4609375 2.01171875 C-0.97882813 1.34785156 -0.49671875 0.68398437 0 0 Z " fill="#FBE278" transform="translate(162,86)"/>
<path d="M0 0 C0.66 0.33 1.32 0.66 2 1 C1.67 1.66 1.34 2.32 1 3 C-0.32 3 -1.64 3 -3 3 C-1.93354885 4.29633621 -1.93354885 4.29633621 0.5625 4.0625 C1.366875 4.041875 2.17125 4.02125 3 4 C2.01 4.99 1.02 5.98 0 7 C-2.31 6.34 -4.62 5.68 -7 5 C-7 5.66 -7 6.32 -7 7 C-8.32 6.67 -9.64 6.34 -11 6 C-9.54195831 5.18697675 -8.08355685 4.37459869 -6.625 3.5625 C-5.40683594 2.88380859 -5.40683594 2.88380859 -4.1640625 2.19140625 C-2.79003378 1.4349464 -1.40290739 0.70145369 0 0 Z " fill="#F9E67D" transform="translate(185,105)"/>
<path d="M0 0 C0.66 0.33 1.32 0.66 2 1 C-0.05233685 3.2477975 -1.00667261 4.0022242 -4 5 C-4.33 5.66 -4.66 6.32 -5 7 C-4.34 7.33 -3.68 7.66 -3 8 C-6 10 -6 10 -9 10 C-9 9.34 -9 8.68 -9 8 C-9.66 7.67 -10.32 7.34 -11 7 C-9.5957519 4.19150381 -7.89192299 4.11733388 -5 3 C-4.113125 2.443125 -3.22625 1.88625 -2.3125 1.3125 C-1.1678125 0.6628125 -1.1678125 0.6628125 0 0 Z " fill="#FAE06F" transform="translate(193,122)"/>
<path d="M0 0 C1.65 0.33 3.3 0.66 5 1 C5 1.66 5 2.32 5 3 C5.66 3.33 6.32 3.66 7 4 C5.68 4 4.36 4 3 4 C3 4.99 3 5.98 3 7 C-0.45925163 5.7508258 -3.14693203 4.32472205 -6 2 C-4.35 2 -2.7 2 -1 2 C-1 2.66 -1 3.32 -1 4 C-0.34 4 0.32 4 1 4 C0.67 2.68 0.34 1.36 0 0 Z " fill="#FAE37A" transform="translate(202,68)"/>
<path d="M0 0 C2.97 0.33 5.94 0.66 9 1 C9 1.66 9 2.32 9 3 C5.62902617 4.49821059 3.79557881 5 0 5 C0 3.35 0 1.7 0 0 Z " fill="#58E1E4" transform="translate(137,153)"/>
<path d="M0 0 C2.125 0.9375 2.125 0.9375 4 2 C2.58480285 4.0343459 1.45017877 4.90410393 -0.98046875 5.421875 C-2.98176954 5.66273952 -4.9909944 5.83532741 -7 6 C-7 5.34 -7 4.68 -7 4 C-5.68 4 -4.36 4 -3 4 C-2.67 3.01 -2.34 2.02 -2 1 C-1.34 0.67 -0.68 0.34 0 0 Z " fill="#FCDF5D" transform="translate(189,104)"/>
<path d="M0 0 C0.66 0 1.32 0 2 0 C3.96997115 3.93994231 3.59476898 8.71639791 3 13 C0.5 15.6875 0.5 15.6875 -2 17 C-2 16.34 -2 15.68 -2 15 C-2.66 14.67 -3.32 14.34 -4 14 C-1 12 -1 12 2 12 C1.85831863 10.56208484 1.71148957 9.1246763 1.5625 7.6875 C1.48128906 6.88699219 1.40007812 6.08648437 1.31640625 5.26171875 C1.04734307 2.83912821 1.04734307 2.83912821 0 0 Z " fill="#FEF8CE" transform="translate(144,73)"/>
<path d="M0 0 C1 2 1 2 1 6 C0.34 6 -0.32 6 -1 6 C-1 6.66 -1 7.32 -1 8 C-1.66 8 -2.32 8 -3 8 C-3 8.66 -3 9.32 -3 10 C-4.98 10.99 -4.98 10.99 -7 12 C-5.44298069 7.32894208 -2.91552627 3.91294315 0 0 Z " fill="#FAE379" transform="translate(175,66)"/>
<path d="M0 0 C2.97 0.495 2.97 0.495 6 1 C4.87994369 4.36016893 3.62788203 5.69064913 1 8 C0.34 8 -0.32 8 -1 8 C-1 7.01 -1 6.02 -1 5 C-0.34 5 0.32 5 1 5 C0.67 3.35 0.34 1.7 0 0 Z " fill="#FEDE53" transform="translate(91,109)"/>
<path d="M0 0 C0 0.66 0 1.32 0 2 C-0.66 2 -1.32 2 -2 2 C-2 2.66 -2 3.32 -2 4 C-0.68 4.33 0.64 4.66 2 5 C-1.81756824 6.37432457 -5.07255329 5.67975039 -9 5 C-8.67 4.34 -8.34 3.68 -8 3 C-6.68 3 -5.36 3 -4 3 C-4 2.34 -4 1.68 -4 1 C-2 0 -2 0 0 0 Z " fill="#FBE37D" transform="translate(103,73)"/>
<path d="M0 0 C1.37562854 1.28965176 2.70766393 2.62689293 4 4 C4 4.66 4 5.32 4 6 C4.99 6 5.98 6 7 6 C7 5.34 7 4.68 7 4 C8.32 3.67 9.64 3.34 11 3 C10.67 3.99 10.34 4.98 10 6 C7.39137376 7.03131735 4.75952365 7.43057449 2 8 C1.34 5.36 0.68 2.72 0 0 Z " fill="#FEF7DC" transform="translate(177,136)"/>
<path d="M0 0 C-1.62249941 0.83819158 -3.24808497 1.6704116 -4.875 2.5 C-6.23238281 3.19609375 -6.23238281 3.19609375 -7.6171875 3.90625 C-10 5 -10 5 -12 5 C-11.25 3.0625 -11.25 3.0625 -10 1 C-8.125 0.3125 -8.125 0.3125 -6 0 C-5.29875 -0.20625 -4.5975 -0.4125 -3.875 -0.625 C-2 -1 -2 -1 0 0 Z " fill="#F9E36F" transform="translate(215,125)"/>
<path d="M0 0 C1.98 0 3.96 0 6 0 C6.3125 2.3125 6.3125 2.3125 6 5 C3.625 6.875 3.625 6.875 1 8 C0.34 7.67 -0.32 7.34 -1 7 C0.65 6.01 2.3 5.02 4 4 C2.68 2.68 1.36 1.36 0 0 Z " fill="#FCF4C9" transform="translate(208,92)"/>
<path d="M0 0 C0.66 0 1.32 0 2 0 C2 0.66 2 1.32 2 2 C3.32 2 4.64 2 6 2 C6 2.66 6 3.32 6 4 C8.64 4 11.28 4 14 4 C14 4.33 14 4.66 14 5 C12.41753293 5.08153933 10.83383727 5.13943557 9.25 5.1875 C7.92742187 5.23970703 7.92742187 5.23970703 6.578125 5.29296875 C3.52389051 4.94589665 2.19435701 4.11745198 0 2 C0 1.34 0 0.68 0 0 Z " fill="#78DFE0" transform="translate(161,172)"/>
<path d="M0 0 C5.28089024 -0.30466674 6.577168 -0.317124 11 3 C7.7 3 4.4 3 1 3 C0.67 2.01 0.34 1.02 0 0 Z " fill="#6BE3E8" transform="translate(141,167)"/>
<path d="M0 0 C1.32 0 2.64 0 4 0 C4 0.66 4 1.32 4 2 C5.65 2 7.3 2 9 2 C9.33 3.32 9.66 4.64 10 6 C2.42857143 3 2.42857143 3 0 0 Z " fill="#FBE27D" transform="translate(104,97)"/>
<path d="M0 0 C0 0.99 0 1.98 0 3 C-0.66 3 -1.32 3 -2 3 C-2.33 4.32 -2.66 5.64 -3 7 C-3.99 6.67 -4.98 6.34 -6 6 C-5.625 3.5625 -5.625 3.5625 -5 1 C-3 0 -3 0 0 0 Z " fill="#FEDE56" transform="translate(168,85)"/>
<path d="M0 0 C1.32 0 2.64 0 4 0 C4 0.66 4 1.32 4 2 C3.34 2 2.68 2 2 2 C1.67 4.31 1.34 6.62 1 9 C-1 6 -1 6 -0.625 2.8125 C-0.41875 1.884375 -0.2125 0.95625 0 0 Z " fill="#FCE054" transform="translate(176,124)"/>
<path d="M0 0 C2.31 0 4.62 0 7 0 C6.67 1.32 6.34 2.64 6 4 C4.02 3.34 2.04 2.68 0 2 C0 1.34 0 0.68 0 0 Z " fill="#FCDF59" transform="translate(215,78)"/>
<path d="M0 0 C-0.33 0.99 -0.66 1.98 -1 3 C-5.75 2.25 -5.75 2.25 -8 0 C-4.94736336 -0.98120464 -3.05263664 -0.98120464 0 0 Z " fill="#FCE279" transform="translate(130,136)"/>
<path d="M0 0 C2.9375 0.75 2.9375 0.75 6 2 C6.875 4.125 6.875 4.125 7 6 C6.34 6 5.68 6 5 6 C5 5.34 5 4.68 5 4 C3.35 4 1.7 4 0 4 C0 2.68 0 1.36 0 0 Z " fill="#FDDE57" transform="translate(196,66)"/>
<path d="M0 0 C0.66 0.99 1.32 1.98 2 3 C1.34 3 0.68 3 0 3 C-0.33 4.65 -0.66 6.3 -1 8 C-1.33 7.34 -1.66 6.68 -2 6 C-4.02463255 5.34786708 -4.02463255 5.34786708 -6 5 C-5.34 4.67 -4.68 4.34 -4 4 C-3.34 4.33 -2.68 4.66 -2 5 C-1.34 3.35 -0.68 1.7 0 0 Z " fill="#FAE47D" transform="translate(137,124)"/>
<path d="M0 0 C1.125 3.75 1.125 3.75 0 6 C-0.66 6 -1.32 6 -2 6 C-2 6.66 -2 7.32 -2 8 C-2.66 8 -3.32 8 -4 8 C-2.87548273 5.0280615 -1.77706209 2.66559313 0 0 Z " fill="#F9E580" transform="translate(167,78)"/>
<path d="M0 0 C0.66 0.99 1.32 1.98 2 3 C0.60804085 5.7839183 -1.15575779 5.97898997 -4 7 C-1.125 1.125 -1.125 1.125 0 0 Z " fill="#FDF8D7" transform="translate(175,78)"/>
<path d="M0 0 C-0.66 2.31 -1.32 4.62 -2 7 C-2.99 6.01 -3.98 5.02 -5 4 C-4.67 3.01 -4.34 2.02 -4 1 C-2 0 -2 0 0 0 Z " fill="#FEF8D6" transform="translate(181,114)"/>
<path d="M0 0 C1.65 0.33 3.3 0.66 5 1 C5 1.66 5 2.32 5 3 C3.02 3.33 1.04 3.66 -1 4 C-0.67 2.68 -0.34 1.36 0 0 Z " fill="#FAE05C" transform="translate(116,66)"/>
</svg>
